<svg aria-hidden="true" style="position: absolute; width: 0; height: 0; overflow: hidden;" version="1.1" xmlns="http://www.w3.org/2000/svg" xmlns:xlink="http://www.w3.org/1999/xlink">
<defs>
<symbol id="icon-antenna" viewBox="0 0 32 32">
<path fill="#202020" style="fill: var(--color1, #202020)" d="M30.766 22.080l-8.457-8.503 0.96-4.571c0.229 0.046 0.457 0.137 0.777 0.137 0.007 0 0.016 0 0.025 0 1.187 0 2.149-0.962 2.149-2.149s-0.962-2.149-2.149-2.149c-1.187 0-2.149 0.962-2.149 2.149 0 0.245 0.041 0.481 0.117 0.701l-0.005-0.015-4.983 0.594-8.091-8.137c-0.091-0.091-0.229-0.137-0.366-0.137s-0.274 0.046-0.366 0.137l-1.509 1.509c-0.229 0.229-0.229 0.549 0 0.777l0.823 0.777c-1.129 2.053-1.794 4.499-1.794 7.1 0 4.161 1.7 7.925 4.444 10.635l0.002 0.002-0.046 0.549v6.217h-6.4c-0.014-0-0.030-0-0.046-0-1.464 0-2.651 1.187-2.651 2.651 0 0 0 0 0 0v-0 1.051c0 0.32 0.274 0.549 0.549 0.549h24.549c0.274 0 0.503-0.229 0.503-0.549v-1.051c0-1.463-1.189-2.651-2.651-2.651h-6.4v-2.743c0.899 0.191 1.932 0.3 2.991 0.3 2.586 0 5.020-0.653 7.146-1.803l-0.080 0.039 0.869 0.823c0.091 0.091 0.229 0.137 0.366 0.137s0.274-0.046 0.366-0.137l1.509-1.509c0.229-0.229 0.229-0.549 0-0.777zM23.314 6.217c0.186-0.169 0.434-0.272 0.706-0.272 0.581 0 1.051 0.471 1.051 1.051 0 0.555-0.431 1.010-0.976 1.049l-0.003 0c-0.021 0.002-0.046 0.002-0.072 0.002-0.581 0-1.051-0.471-1.051-1.051 0-0.309 0.133-0.586 0.345-0.779l0.001-0.001zM22.080 9.737l-0.594 2.926-1.189-1.143 1.783-1.783zM21.486 8.823l-1.92 1.92-1.509-1.509 3.429-0.411zM24 28.8c0.914 0 1.6 0.731 1.6 1.6v0.549h-23.451v-0.549c0-0.914 0.686-1.6 1.6-1.6h20.251zM16.549 26.651v1.097h-5.349v-1.097h5.349zM11.2 25.6v-4.069c0-1.28 1.189-2.331 2.651-2.331 1.509 0 2.697 1.051 2.697 2.331v4.069h-5.349zM17.6 23.909v-2.423c0-1.829-1.691-3.383-3.749-3.383-1.326 0-2.56 0.64-3.246 1.783-2.369-2.481-3.827-5.85-3.827-9.559 0-2.319 0.57-4.505 1.578-6.426l-0.036 0.076 18.606 18.743c-1.816 0.94-3.965 1.492-6.242 1.492-1.093 0-2.157-0.127-3.177-0.367l0.094 0.019zM28.891 23.223l-0.731-0.823-19.566-19.657-0.823-0.686 0.777-0.777 7.909 8 13.257 13.12-0.777 0.777z"></path>
<path fill="#2196F3" style="fill: var(--color2, #2196F3)" d="M13.897 20.251c-0.884 0-1.6 0.716-1.6 1.6s0.716 1.6 1.6 1.6v0c0.884 0 1.6-0.716 1.6-1.6s-0.716-1.6-1.6-1.6v0zM14.263 22.263c-0.101 0.112-0.247 0.183-0.409 0.183-0.303 0-0.549-0.246-0.549-0.549s0.244-0.547 0.546-0.549h0c0.001 0 0.002 0 0.003 0 0.303 0 0.549 0.246 0.549 0.549 0 0.141-0.053 0.269-0.14 0.366l0-0z"></path>
</symbol>
<symbol id="icon-astronaut" viewBox="0 0 32 32">
<path fill="#2196F3" style="fill: var(--color2, #2196F3)" d="M32 4.526c-0.091-0.183-0.274-0.32-0.457-0.366l-1.92-0.274-0.823-1.737c-0.183-0.366-0.777-0.366-0.96 0l-0.914 1.737-1.829 0.274c-0.265 0.042-0.465 0.269-0.465 0.542 0 0.144 0.055 0.275 0.146 0.372l-0-0 1.371 1.371-0.32 1.874c-0.002 0.015-0.002 0.033-0.002 0.051 0 0.303 0.246 0.549 0.549 0.549 0.084 0 0.163-0.019 0.234-0.052l-0.003 0.001 1.691-0.914 1.691 0.914c0.068 0.032 0.147 0.051 0.231 0.051 0.303 0 0.549-0.246 0.549-0.549 0-0.018-0.001-0.036-0.003-0.053l0 0.002-0.32-1.92 1.371-1.371c0.183-0.091 0.229-0.32 0.137-0.503zM29.531 5.851c-0.137 0.137-0.183 0.32-0.183 0.457l0.183 1.143-1.006-0.549c-0.067-0.032-0.146-0.050-0.229-0.050s-0.162 0.018-0.232 0.051l0.003-0.001-1.006 0.549 0.183-1.143c0-0.137 0-0.32-0.137-0.457l-0.823-0.777 1.097-0.183c0.183 0 0.32-0.137 0.457-0.274l0.457-1.006 0.503 0.96c0.091 0.137 0.229 0.274 0.411 0.274l1.097 0.183-0.777 0.777zM26.149 20.526h-1.097v1.051h1.097v-1.006zM26.149 22.674h-1.097v1.051h1.097v-1.051zM27.2 21.577h-1.051v1.097h1.051v-1.097zM25.051 21.577h-1.051v1.097h1.051v-1.097zM22.4 26.377h-1.051v1.097h1.051v-1.097zM22.4 28.526h-1.051v1.051h1.051v-1.051zM23.451 27.429h-1.051v1.097h1.051v-1.097zM21.349 27.429h-1.097v1.097h1.097v-1.097zM16 24.229h-1.051v1.097h1.051v-1.097zM16 26.377h-1.051v1.097h1.051v-1.097zM17.051 25.326h-1.051v1.051h1.051v-1.051zM14.949 25.326h-1.097v1.051h1.097v-1.051zM5.851 6.126h-1.051v1.051h1.051v-1.051zM5.851 8.229h-1.051v1.097h1.051v-1.097z"></path>
<path fill="#2196F3" style="fill: var(--color2, #2196F3)" d="M6.949 7.177h-1.097v1.097h1.097v-1.097zM4.8 7.177h-1.051v1.097h1.051v-1.097z"></path>
<path fill="#202020" style="fill: var(--color1, #202020)" d="M24.686 14.171c-0.266-0.377-0.668-0.643-1.132-0.73l-0.011-0.002c-0.457-0.046-0.96 0.091-1.371 0.366l-1.234 0.96-1.92 1.417-1.371-0.549c2.403-1.128 4.037-3.528 4.037-6.309 0-3.81-3.067-6.904-6.867-6.948l-0.004-0c-3.818 0.025-6.904 3.127-6.904 6.948 0 1.392 0.409 2.689 1.114 3.776l-0.016-0.027h-3.063l-3.2 1.646-1.92 0.914h-0.091c-0.524 0.317-0.869 0.884-0.869 1.531 0 0.985 0.799 1.784 1.784 1.784 0.338 0 0.653-0.094 0.922-0.257l-0.008 0.004 1.371-0.731 2.286-1.143h1.371l-5.394 5.349-1.371 1.371c-0.286 0.296-0.462 0.699-0.462 1.143s0.176 0.847 0.462 1.143l-0-0c0.3 0.313 0.722 0.507 1.189 0.507s0.889-0.194 1.188-0.507l0.001-0.001 1.371-1.28 1.691-1.28 0.914 0.914-1.783 1.737-1.28 1.371c-0.299 0.298-0.484 0.71-0.484 1.166s0.185 0.868 0.484 1.166l0 0c0.305 0.302 0.725 0.488 1.189 0.488s0.883-0.186 1.189-0.488l3.428-3.428 1.006-0.96 5.166-5.714 3.474 0.503c0.041 0.012 0.088 0.019 0.137 0.019s0.096-0.007 0.141-0.020l-0.004 0.001 0.046-0.046h0.046l3.2-2.149 0.046-0.046h0.046l1.28-1.234c0.345-0.326 0.559-0.786 0.559-1.297 0-0.388-0.124-0.747-0.334-1.040l0.004 0.005zM2.194 17.783c-0.183 0.091-0.366 0.091-0.594 0-0.264-0.114-0.445-0.373-0.445-0.673 0-0.225 0.101-0.426 0.261-0.56l0.001-0.001 1.28-0.64 0.32 0.914 0.137 0.457-0.96 0.457zM5.669 15.954l-1.554 0.777-0.274-0.731-0.183-0.549 2.011-1.006v1.554zM20.754 9.326c0 0.914-0.183 1.783-0.594 2.56l-4.16-1.92c-0.041-0.569-0.336-1.061-0.771-1.368l-0.006-0.004 1.463-4.846c2.377 0.731 4.114 2.971 4.114 5.577zM9.006 9.326c0.032-3.232 2.66-5.841 5.897-5.841 0.226 0 0.448 0.013 0.667 0.037l-0.027-0.002-1.417 4.709c-0.027-0.001-0.059-0.002-0.091-0.002-1.010 0-1.829 0.819-1.829 1.829 0 0.001 0 0.002 0 0.002v-0c-0.013 0.081-0.020 0.175-0.020 0.271 0 1.010 0.819 1.829 1.829 1.829 0.779 0 1.444-0.487 1.707-1.172l0.004-0.012 3.84 1.783c-1.088 1.432-2.791 2.347-4.709 2.347-3.23 0-5.854-2.597-5.897-5.818l-0-0.004zM14.949 10.103c0 0.457-0.366 0.823-0.823 0.823s-0.777-0.366-0.777-0.823 0.32-0.777 0.777-0.777 0.823 0.366 0.823 0.777zM2.514 25.189c-0.229 0.183-0.64 0.183-0.869 0-0.131-0.11-0.215-0.274-0.215-0.457s0.083-0.347 0.214-0.456l0.001-0.001 0.96-0.914 0.869 0.823-1.006 0.96zM5.714 28.846c-0.229 0.274-0.594 0.274-0.823 0-0.102-0.107-0.165-0.252-0.165-0.411s0.063-0.305 0.166-0.412l0.914-0.914 0.457 0.366 0.457 0.457-1.006 0.914zM9.189 25.417l-1.737 1.737-0.457-0.366-0.411-0.457 1.783-1.783 0.091-0.137v-0.183l0.046-0.091v-0.183l-0.137-0.137v-0.046l-1.6-1.6h-0.091l-0.091-0.091h-0.091l-0.091-0.046h-0.183l-0.091 0.046h-0.183l-1.737 1.371-0.914-0.914 2.377-2.377 4.389 4.297-0.914 0.914zM16.046 18.377h-0.046c-0.019-0.002-0.040-0.004-0.062-0.004-0.136 0-0.259 0.054-0.349 0.141l0-0v0.046l-4.8 5.211-4.343-4.251 2.834-2.834c0.088-0.097 0.141-0.226 0.141-0.367 0-0.288-0.222-0.525-0.505-0.547l-0.002-0h-2.24v-1.6h3.109c1.266 1.312 3.039 2.127 5.003 2.127 0.445 0 0.881-0.042 1.303-0.122l-0.043 0.007 0.137 0.091 2.423 0.914 0.137 0.777 0.183 0.914-2.971-0.457zM20.069 18.56l-0.32-1.554 1.463-1.051 0.366 0.457 0.549 0.777-2.057 1.371zM23.817 15.726l-0.823 0.823-0.914-1.28 0.823-0.594c0.137-0.137 0.32-0.183 0.503-0.183 0.372 0.037 0.661 0.349 0.661 0.728 0 0.197-0.078 0.375-0.204 0.507l0-0z"></path>
<path fill="#202020" style="fill: var(--color1, #202020)" d="M13.623 18.56l-2.194-2.149c-0.229-0.229-0.549-0.229-0.777 0l-2.149 2.149c-0.087 0.097-0.14 0.225-0.14 0.366s0.053 0.269 0.14 0.366l-0-0 2.149 2.149c0.099 0.1 0.237 0.161 0.389 0.161s0.289-0.062 0.389-0.161v0l2.149-2.149c0.087-0.097 0.14-0.225 0.14-0.366s-0.053-0.269-0.14-0.366l0 0zM11.063 20.297l-1.371-1.371 1.371-1.371 1.371 1.371-1.371 1.371zM17.143 5.029l-0.229 1.097c0.046 0 1.737 0.457 1.737 2.149h1.006c0-2.057-1.646-2.971-2.56-3.2zM19.703 9.326h-1.051v1.051h1.006v-1.051z"></path>
</symbol>
<symbol id="icon-clock" viewBox="0 0 32 32">
<path fill="#202020" style="fill: var(--color1, #202020)" d="M31.314 15.314c0-0.005 0-0.010 0-0.016 0-8.458-6.856-15.314-15.314-15.314s-15.314 6.856-15.314 15.314c0 6.859 4.51 12.665 10.726 14.615l0.108 0.029c0.137 0 0.229-0.046 0.366-0.137 0.137-0.046 0.229-0.183 0.274-0.366l3.84-12.206c1.058-0.003 1.915-0.861 1.915-1.92 0-1.060-0.86-1.92-1.92-1.92-0.297 0-0.578 0.067-0.829 0.188l0.012-0.005-5.12-5.12c-0.117-0.117-0.279-0.189-0.457-0.189-0.357 0-0.646 0.289-0.646 0.646 0 0.179 0.072 0.34 0.189 0.457l5.12 5.12c-0.114 0.235-0.18 0.511-0.18 0.802 0 0.602 0.284 1.137 0.725 1.48l0.004 0.003-3.657 11.703c-5.431-2.020-9.229-7.159-9.229-13.186 0-7.751 6.283-14.034 14.034-14.034s14.034 6.283 14.034 14.034c0 5.684-3.379 10.578-8.237 12.785l-0.088 0.036-0.366-1.874c-0.057-0.3-0.317-0.524-0.63-0.524-0.162 0-0.31 0.060-0.423 0.159l0.001-0.001-3.84 3.429c-0.137 0.118-0.223 0.292-0.223 0.485 0 0.286 0.188 0.529 0.447 0.61l0.005 0.001 4.891 1.6c0.058 0.019 0.125 0.030 0.195 0.030 0.353 0 0.64-0.287 0.64-0.64 0-0.043-0.004-0.085-0.012-0.126l0.001 0.004-0.366-1.829c5.527-2.379 9.326-7.778 9.326-14.065 0-0.005 0-0.011 0-0.016v0.001zM16 14.629c0.353 0 0.64 0.287 0.64 0.64s-0.287 0.64-0.64 0.64v0c-0.353 0-0.64-0.287-0.64-0.64s0.287-0.64 0.64-0.64v0zM18.103 29.486l2.194-1.966 0.594 2.834-2.789-0.914z"></path>
<path fill="#2196F3" style="fill: var(--color2, #2196F3)" d="M15.36 3.2v1.28c0 0.353 0.287 0.64 0.64 0.64s0.64-0.287 0.64-0.64v-1.28c0-0.353-0.287-0.64-0.64-0.64s-0.64 0.287-0.64 0.64v0zM3.886 14.629c-0.366 0-0.663 0.297-0.663 0.663s0.297 0.663 0.663 0.663h1.28c0.353 0 0.64-0.287 0.64-0.64s-0.287-0.64-0.64-0.64h-1.28zM28.114 15.954c0.353 0 0.64-0.287 0.64-0.64s-0.287-0.64-0.64-0.64h-1.28c-0.353 0-0.64 0.287-0.64 0.64s0.287 0.64 0.64 0.64h1.28z"></path>
</symbol>
<symbol id="icon-diagram" viewBox="0 0 32 32">
<path fill="#2196F3" style="fill: var(--color2, #2196F3)" d="M14.903 14.949h1.097v4.8h-1.097v-4.8zM19.2 17.097h1.051v2.651h-1.051v-2.651zM10.651 18.697h1.097v1.051h-1.097v-1.006zM7.451 18.149h1.097v1.6h-1.097v-1.6z"></path>
<path fill="#202020" style="fill: var(--color1, #202020)" d="M1.6 28.297h25.6c0.869 0 1.6-0.731 1.6-1.6v-2.149c0-0.914-0.731-1.6-1.6-1.6h-0.549v-13.257l3.017-2.88c0.213 0.112 0.465 0.178 0.733 0.178 0.884 0 1.6-0.716 1.6-1.6s-0.716-1.6-1.6-1.6c-0.884 0-1.6 0.716-1.6 1.6 0 0.234 0.050 0.455 0.14 0.655l-0.004-0.010-2.286 2.149v-1.234c0-0.869-0.731-1.6-1.6-1.6h-21.303c-0.914 0-1.6 0.731-1.6 1.6v16h-0.549c-0.914 0-1.6 0.731-1.6 1.6v2.149c0 0.914 0.731 1.6 1.6 1.6zM30.4 4.846c0.047-0.014 0.101-0.023 0.157-0.023 0.303 0 0.549 0.246 0.549 0.549s-0.246 0.549-0.549 0.549c-0.056 0-0.11-0.008-0.161-0.024l0.004 0.001c-0.229-0.070-0.392-0.279-0.392-0.526s0.163-0.456 0.388-0.525l0.004-0.001zM3.2 6.949c0-0.274 0.229-0.503 0.549-0.503h21.303c0.274 0 0.549 0.229 0.549 0.503v2.286l-1.097 1.006v-2.194c0-0.32-0.229-0.549-0.503-0.549h-19.2c-0.274 0-0.549 0.229-0.549 0.549v13.303c0 0.32 0.274 0.549 0.549 0.549h19.2c0.274 0 0.503-0.229 0.503-0.549v-9.646l1.097-1.006v12.251h-22.4v-16zM8 13.897c-0.007-0-0.015-0-0.022-0-0.884 0-1.6 0.716-1.6 1.6s0.716 1.6 1.6 1.6c0.436 0 0.831-0.174 1.12-0.457l-0 0 1.829 0.914c0.229 0.137 0.503 0.091 0.686-0.091l3.931-4.434 3.84 2.88c0.229 0.183 0.503 0.137 0.686 0l3.383-3.2v8.137h-18.103v-12.297h18.103v2.697l-3.749 3.566-3.931-2.926c-0.229-0.183-0.549-0.137-0.731 0.046l-3.977 4.526-1.463-0.777v-0.137c0-0.914-0.686-1.6-1.554-1.6zM8.549 15.497c0 0.303-0.246 0.549-0.549 0.549s-0.549-0.246-0.549-0.549v0c0-0.303 0.246-0.549 0.549-0.549s0.549 0.246 0.549 0.549v0zM11.749 24.046h5.303v0.503c0 0.32-0.229 0.549-0.549 0.549h-4.251c-0.274 0-0.503-0.229-0.503-0.549v-0.503zM1.051 24.549c0-0.274 0.274-0.503 0.549-0.503h9.051v0.503c0 0.914 0.731 1.6 1.6 1.6h4.251c0.914 0 1.6-0.686 1.6-1.6v-0.503h9.097c0.274 0 0.503 0.229 0.503 0.503v2.149c0 0.274-0.229 0.549-0.503 0.549h-25.6c-0.274 0-0.549-0.274-0.549-0.549v-2.149z"></path>
</symbol>
<symbol id="icon-facebook" viewBox="0 0 32 32">
<path d="M21.28 5.28h3.040v-5.12l-4.32-0.16c-4.16 0-7.040 2.72-7.040 7.52v4.48h-4.96v5.76h4.8v14.24h5.6v-14.4h4.48l0.8-5.6h-5.28v-3.84c0-1.6 0.48-2.88 2.72-2.88z"></path>
</symbol>
<symbol id="icon-group" viewBox="0 0 43 32">
<path  d="M3.239 26.373c0.166 0.188 0.254 0.424 0.25 0.665 0.008 0.158-0.022 0.315-0.089 0.46s-0.169 0.275-0.298 0.38c-0.322 0.223-0.722 0.332-1.125 0.307h-1.977v-4.215h1.937c0.382-0.023 0.761 0.076 1.073 0.28 0.125 0.096 0.224 0.217 0.289 0.354s0.095 0.286 0.086 0.435c0.011 0.233-0.068 0.461-0.225 0.645-0.15 0.168-0.358 0.284-0.589 0.329 0.262 0.044 0.499 0.172 0.668 0.36zM0.92 25.737h0.828c0.188 0.013 0.375-0.037 0.526-0.14 0.062-0.052 0.111-0.116 0.141-0.187s0.043-0.148 0.036-0.225c0.006-0.076-0.007-0.153-0.037-0.224s-0.078-0.135-0.138-0.188c-0.156-0.106-0.349-0.156-0.542-0.142h-0.814v1.106zM2.355 27.353c0.066-0.053 0.119-0.119 0.153-0.193s0.049-0.155 0.043-0.235c0.005-0.081-0.010-0.163-0.045-0.238s-0.088-0.142-0.155-0.195c-0.162-0.11-0.361-0.164-0.562-0.152h-0.868v1.159h0.879c0.198 0.011 0.394-0.041 0.556-0.146z"></path>
<path  d="M7.197 28.185l-1.077-1.647h-0.405v1.647h-0.927v-4.215h1.754c0.442-0.028 0.879 0.1 1.221 0.358 0.245 0.229 0.393 0.53 0.417 0.85s-0.078 0.637-0.287 0.894c-0.216 0.227-0.512 0.378-0.837 0.428l1.147 1.684h-1.008zM5.715 25.963h0.758c0.526 0 0.789-0.213 0.789-0.638 0.005-0.087-0.009-0.174-0.042-0.255s-0.085-0.156-0.151-0.218c-0.166-0.127-0.38-0.188-0.596-0.171h-0.767l0.009 1.283z"></path>
<path  d="M12.262 27.337h-1.847l-0.326 0.848h-0.972l1.696-4.168h1.050l1.689 4.168h-0.972l-0.319-0.848zM12.015 26.698l-0.675-1.779-0.675 1.779h1.349z"></path>
<path  d="M18.602 28.185h-0.92l-2.062-2.867v2.867h-0.918v-4.215h0.918l2.062 2.883v-2.883h0.92v4.215z"></path>
<path  d="M23.852 27.176c-0.19 0.318-0.48 0.577-0.832 0.743-0.4 0.185-0.845 0.276-1.293 0.266h-1.637v-4.215h1.637c0.448-0.011 0.891 0.078 1.293 0.259 0.352 0.163 0.642 0.419 0.832 0.735 0.189 0.343 0.288 0.722 0.288 1.106s-0.099 0.763-0.288 1.106zM22.799 27.075c0.263-0.28 0.407-0.637 0.407-1.006s-0.144-0.726-0.407-1.006c-0.317-0.254-0.731-0.382-1.152-0.358h-0.639v2.729h0.639c0.42 0.024 0.834-0.105 1.152-0.358z"></path>
<path  d="M12.838 0.522c0 0 11.873 4.104 11.621 10.043v10.045c0 0-11.864-4.106-11.617-10.045l-0.005-10.043z"></path>
<path  d="M35.037 18.259c2.242-1.413 4.836-2.288 7.544-2.545v-3.145c-3.12 1.101-5.766 3.097-7.544 5.69z"></path>
<path  d="M33.69 19.206c1.835-3.384 5.017-5.995 8.891-7.296v-9.061c0 0-16.909 5.846-16.551 14.304v14.302c0 0 0.753-0.262 1.939-0.752 0-0.457 0-0.918 0.054-1.382 0.35-3.926 2.389-7.565 5.668-10.115z"></path>
<path  d="M32.081 24.52c0.089-0.992 0.287-1.973 0.592-2.928-2.042 2.203-3.278 4.936-3.536 7.815-0.025 0.272-0.038 0.544-0.045 0.824 0.96-0.422 2.078-0.949 3.252-1.569-0.3-1.362-0.388-2.756-0.263-4.141z"></path>
<path  d="M32.754 24.571c-0.113 1.253-0.042 2.514 0.209 3.75 4.62-2.531 9.811-6.442 9.611-11.168v-0.412c-3.301 0.338-6.389 1.659-8.79 3.76-0.562 1.302-0.909 2.674-1.030 4.069z"></path>
</symbol>
<symbol id="icon-group1" viewBox="0 0 34 32">
<path d="M5.638 31.314l0.229 0.152-0.457 0.305-0.686 0.152c-0.229 0-0.381 0-0.61-0.152l-0.457-0.229-0.305-0.457c-0.070-0.169-0.111-0.365-0.111-0.571s0.041-0.402 0.115-0.582l-0.004 0.010 0.305-0.457c0.152-0.076 0.305-0.229 0.533-0.229 0.182-0.061 0.392-0.096 0.61-0.096s0.427 0.035 0.624 0.1l-0.014-0.004 0.457 0.229-0.152 0.152h-0.229l-0.076-0.076c-0.17-0.096-0.374-0.153-0.59-0.153-0.007 0-0.013 0-0.020 0h0.001l-0.457 0.076-0.381 0.229c0 0.152-0.152 0.229-0.229 0.381v0.914l0.229 0.305 0.381 0.229h0.686c0.206-0.023 0.388-0.105 0.535-0.23l-0.001 0.001h0.076zM10.438 30.476l-0.076 0.61-0.381 0.457-0.457 0.229c-0.381 0.152-0.838 0.152-1.295 0-0.175-0.054-0.326-0.132-0.461-0.232l0.004 0.003-0.305-0.457c-0.070-0.169-0.111-0.365-0.111-0.571s0.041-0.402 0.115-0.582l-0.004 0.010c0-0.152 0.152-0.305 0.305-0.457l0.457-0.229c0.457-0.152 0.914-0.152 1.295 0l0.457 0.229c0.282 0.239 0.459 0.594 0.459 0.989 0 0.027-0.001 0.054-0.002 0.081l0-0.004zM9.981 30.476v-0.381c-0.091-0.293-0.317-0.519-0.603-0.608l-0.006-0.002c-0.137-0.045-0.294-0.070-0.457-0.070s-0.32 0.026-0.468 0.073l0.011-0.003-0.381 0.229-0.229 0.381v0.838c0.091 0.293 0.317 0.519 0.603 0.608l0.006 0.002h0.914l0.305-0.229c0.152-0.076 0.229-0.229 0.229-0.381l0.076-0.381zM13.714 31.010v0.076l0.076-0.076v-0.152l1.143-1.676h0.533v2.667h-0.381v-2.133l-1.067 1.676-0.152 0.076h-0.152l-1.295-1.752v2.21h-0.381v-2.667h0.457l1.067 1.676 0.076 0.152zM17.676 30.857v0.99h-0.381v-2.667h1.448c0.152 0 0.229 0.152 0.381 0.229l0.152 0.229 0.076 0.381v0.305l-0.305 0.305-0.305 0.152-0.533 0.076h-0.533zM17.676 30.552h0.838l0.229-0.152 0.152-0.152v-0.533c0-0.076 0-0.152-0.152-0.229l-0.533-0.152h-0.533v1.143zM23.314 31.848h-0.457l-0.305-0.762h-1.448l-0.305 0.762h-0.457l1.219-2.667h0.457l1.295 2.667zM21.257 30.857h1.143l-0.457-1.067-0.152-0.305v0.305l-0.533 1.067zM25.143 29.181l1.829 2.057v-2.057h0.381v2.667h-0.305l-1.905-2.133v2.057h-0.381v-2.667h0.305zM30.4 30.781v1.067h-0.381v-1.067l-1.143-1.6h0.457l0.762 1.143c0.027 0.063 0.053 0.139 0.074 0.217l0.002 0.011 0.076-0.152 0.076-0.076 0.762-1.067v-0.076h0.457l-1.067 1.6zM13.486 24.61h0.61c2.763-1.068 5.060-2.826 6.753-5.066l0.028-0.038c1.676-2.286 2.514-4.876 2.438-7.619l-3.048-2.59c0.187 0.85 0.295 1.826 0.295 2.827 0 2.040-0.445 3.975-1.244 5.715l0.035-0.085c-1.297 2.845-3.307 5.173-5.807 6.82l-0.060 0.037z"></path>
<path d="M12.419 24.381v0.076c2.895-1.752 5.029-4.19 6.248-7.010s1.371-5.943 0.533-8.838l-4.343-3.81c1.374 2.346 2.186 5.165 2.186 8.175 0 4.436-1.763 8.46-4.628 11.41l0.004-0.004zM27.352 15.086c-0.836 3.143-2.673 5.772-5.143 7.592l-0.038 0.027-2.514 1.524c2.226-0.578 4.165-1.578 5.819-2.918l-0.029 0.022c1.524-1.295 2.895-2.895 3.657-4.648l-1.752-1.524z"></path>
<path d="M26.667 14.705l-2.59-2.286c0 2.59-0.838 5.029-2.362 7.162s-3.657 3.886-6.248 5.105l1.752-0.076c2.362-0.838 4.495-2.286 6.095-3.962 1.553-1.604 2.697-3.613 3.257-5.854l0.019-0.089zM12.8 3.2l-3.048-2.667c-2.708 0.883-4.984 2.47-6.685 4.546l-0.020 0.025c-1.553 1.923-2.498 4.392-2.514 7.082l-0 0.004c0 2.819 1.067 5.486 3.048 7.619 1.981 2.286 4.8 3.81 7.848 4.571 2.851-2.91 4.611-6.9 4.611-11.3 0-3.704-1.247-7.117-3.344-9.842l0.028 0.038zM33.6 14.248c0-3.276-1.524-6.476-4.19-8.762-2.667-2.362-6.324-3.657-10.133-3.733-1.752 0-3.505 0.305-5.181 0.838l18.667 16.152c0.61-1.448 0.914-2.971 0.914-4.495z"></path>
</symbol>
<symbol id="icon-group2" viewBox="0 0 65 32">
<path  d="M9.981 9.981c-1.829 0-3.276 1.295-3.276 2.971 0 1.6 1.524 2.895 3.276 2.895 1.829 0 3.352-1.295 3.352-2.895 0-1.676-1.524-2.971-3.352-2.971zM34.438 9.067c0-2.286-0.99-4.419-2.819-6.095-1.752-1.448-4.19-2.362-6.781-2.362-2.514 0-4.952 0.914-6.781 2.514-1.752 1.524-2.743 3.81-2.743 6.019v12.419s19.048-1.905 19.048-12.419zM0 25.524c0 1.6 0.762 3.048 1.981 4.19 1.238 1.079 2.865 1.741 4.645 1.752h0.003c1.829 0 3.505-0.61 4.724-1.752 1.173-1.003 1.927-2.465 1.981-4.105l0-0.009v-8.686s-13.333 1.295-13.333 8.61zM6.629 27.048c-0.305 0-0.686 0-0.914-0.229-0.305-0.152-0.533-0.381-0.686-0.686-0.076-0.229-0.152-0.61-0.076-0.838 0-0.305 0.229-0.61 0.457-0.762 0.229-0.305 0.61-0.457 0.914-0.457h0.99c0.305 0.152 0.61 0.381 0.762 0.61 0.2 0.246 0.322 0.564 0.322 0.91 0 0.424-0.182 0.805-0.473 1.070l-0.001 0.001-0.61 0.305-0.686 0.152zM20.114 26.286h-1.295v1.295h-0.533v-3.2h2.057v0.61h-1.448v0.762h1.295v0.61zM23.314 26.057c0 0.305 0 0.61-0.152 0.762-0.208 0.453-0.658 0.762-1.181 0.762-0.014 0-0.027-0-0.040-0.001l0.002 0c-0.229 0-0.457 0-0.762-0.152l-0.457-0.533-0.152-0.838v-0.152c0-0.305 0-0.61 0.152-0.838 0.208-0.453 0.658-0.762 1.181-0.762 0.014 0 0.027 0 0.040 0.001l-0.002-0c0.305 0 0.533 0 0.762 0.152 0.152 0.152 0.381 0.381 0.457 0.61 0.152 0.229 0.152 0.533 0.152 0.762v0.229zM22.705 25.905c0-0.381-0.076-0.61-0.229-0.762-0.107-0.183-0.303-0.305-0.528-0.305-0.002 0-0.004 0-0.006 0h0c-0.229 0-0.381 0.076-0.533 0.305l-0.152 0.762v0.152c0 0.305 0 0.533 0.152 0.762 0.152 0.152 0.305 0.229 0.533 0.229s0.457 0 0.533-0.229c0.152-0.152 0.152-0.457 0.229-0.762v-0.152zM25.524 26.667s0-0.152-0.152-0.229l-0.457-0.229c-0.229 0-0.457-0.152-0.533-0.229-0.381-0.152-0.61-0.457-0.61-0.762l0.152-0.457c0.152-0.152 0.229-0.305 0.457-0.381l0.61-0.076 0.61 0.076 0.457 0.381 0.152 0.533h-0.686c0-0.152 0-0.229-0.152-0.381-0.087-0.051-0.192-0.081-0.304-0.081-0.027 0-0.054 0.002-0.080 0.005l0.003-0-0.381 0.076-0.152 0.305c0 0.076 0 0.152 0.152 0.229l0.457 0.229c0.381 0.076 0.686 0.229 0.838 0.381 0.229 0.229 0.305 0.381 0.305 0.686s-0.152 0.457-0.305 0.686c-0.229 0.152-0.533 0.229-0.914 0.229-0.229 0-0.457 0-0.686-0.152l-0.457-0.381-0.152-0.533h0.686c0 0.305 0.229 0.533 0.61 0.533 0.152 0 0.305 0 0.381-0.152l0.152-0.229zM29.105 24.914h-0.99v2.667h-0.686v-2.667h-0.99v-0.61h2.667v0.61zM31.39 26.21h-1.219v0.838h1.524v0.533h-2.286v-3.2h2.286v0.61h-1.524v0.762h1.295v0.533zM33.219 26.362h-0.457v1.219h-0.61v-3.2h1.143c0.457 0 0.762 0.152 0.914 0.305 0.229 0.152 0.305 0.381 0.305 0.762 0 0.152 0 0.381-0.152 0.533 0 0.152-0.229 0.229-0.381 0.305l0.686 1.371h-0.762l-0.61-1.219zM32.762 25.905h0.61l0.381-0.076 0.076-0.381-0.076-0.381-0.457-0.076h-0.533v0.914zM36.876 26.514v1.143h-0.762v-3.276h1.371l0.61 0.152 0.457 0.381 0.152 0.61c0 0.305-0.152 0.533-0.381 0.762-0.229 0.152-0.533 0.229-0.914 0.229h-0.533zM36.876 25.981h0.61c0.152 0 0.305 0 0.381-0.152l0.152-0.305c0-0.152 0-0.305-0.152-0.381-0.096-0.094-0.228-0.152-0.373-0.152-0.003 0-0.005 0-0.008 0h-0.609v0.914zM41.067 26.286h-1.295v0.838h1.524v0.533h-2.133v-3.276h1.981v0.61h-1.524v0.762h1.295v0.533zM44.19 24.99h-0.99v2.667h-0.686v-2.667h-0.99v-0.61h2.667v0.61zM46.476 26.286h-1.219v0.838h1.524v0.533h-2.21v-3.276h2.21v0.61h-1.524v0.762h1.219v0.533zM48.381 26.438h-0.533v1.219h-0.762v-3.276h1.295c0.381 0 0.686 0.152 0.838 0.305 0.229 0.152 0.305 0.381 0.305 0.762l-0.076 0.533-0.457 0.305 0.762 1.371h-0.762l-0.61-1.219zM47.848 25.905h0.533l0.381-0.076 0.152-0.381c0-0.152 0-0.305-0.152-0.381l-0.381-0.076h-0.533v0.914zM51.733 26.819l-0.076-0.305-0.533-0.229c-0.229 0-0.381-0.152-0.533-0.229-0.381-0.152-0.533-0.457-0.533-0.762 0-0.229 0-0.381 0.152-0.457 0-0.152 0.229-0.305 0.381-0.381l0.61-0.076 0.686 0.076 0.381 0.381 0.152 0.533h-0.686c0-0.152 0-0.229-0.152-0.381-0.087-0.051-0.192-0.081-0.304-0.081-0.027 0-0.054 0.002-0.080 0.005l0.003-0-0.381 0.076-0.152 0.305 0.229 0.229 0.457 0.229c0.381 0.076 0.61 0.229 0.762 0.381 0.229 0.229 0.305 0.381 0.305 0.686s-0.076 0.457-0.305 0.686c-0.229 0.152-0.533 0.229-0.838 0.229s-0.533 0-0.762-0.152l-0.457-0.381-0.152-0.533h0.762c0 0.305 0.152 0.533 0.61 0.533 0.152 0 0.229 0 0.381-0.152l0.076-0.229z"></path>
</symbol>
<symbol id="icon-instagram" viewBox="0 0 32 32">
<path d="M32 9.44c0-1.6-0.32-2.88-0.8-3.84-0.32-1.12-0.96-2.080-1.76-2.88-0.79-0.823-1.751-1.475-2.826-1.901l-0.054-0.019c-3.142-0.321-6.79-0.504-10.48-0.504s-7.338 0.183-10.934 0.541l0.454-0.037c-1.12 0.48-2.080 1.12-2.88 1.92-0.746 0.756-1.342 1.661-1.741 2.666l-0.019 0.054c-0.48 1.12-0.96 2.24-0.96 4.16-0.035 1.038-0.056 2.258-0.056 3.482 0 4.808 0.311 9.543 0.914 14.186l-0.058-0.548c0.418 1.059 1.014 1.964 1.761 2.721l-0.001-0.001c0.79 0.823 1.751 1.475 2.826 1.901l0.054 0.019c0.96 0.32 2.080 0.64 3.84 0.64 1.251 0.048 2.721 0.075 4.196 0.075 4.553 0 9.045-0.26 13.463-0.765l-0.54 0.050c2.227-0.846 3.954-2.573 4.781-4.744l0.019-0.056 0.64-3.84c0.173-2.39 0.272-5.179 0.272-7.99 0-1.804-0.041-3.599-0.121-5.384l0.009 0.254zM29.12 22.4c0 1.6-0.32 2.4-0.64 3.040-0.48 1.44-1.6 2.56-3.040 3.040-0.48 0.16-1.28 0.48-2.88 0.48-1.382 0.061-3.002 0.095-4.631 0.095-4.004 0-7.959-0.209-11.856-0.616l0.487 0.041c-0.688-0.254-1.276-0.635-1.76-1.12l-0-0c-0.48-0.64-0.96-1.28-1.12-1.92-0.32-0.48-0.64-1.44-0.64-3.040-0.032-1.008-0.051-2.194-0.051-3.384 0-4.389 0.251-8.718 0.739-12.976l-0.049 0.52c0.16-0.64 0.64-1.28 1.12-1.76 0.48-0.64 1.12-0.96 1.76-1.28 0.64-0.16 1.6-0.48 3.2-0.48 1.312-0.055 2.851-0.086 4.397-0.086 3.974 0 7.9 0.205 11.767 0.606l-0.484-0.041c0.8 0.32 1.44 0.64 1.92 1.28 0.48 0.48 0.96 1.12 1.12 1.76 0.32 0.64 0.48 1.44 0.64 3.040 0.116 1.913 0.182 4.149 0.182 6.4s-0.066 4.487-0.196 6.706l0.014-0.306z"></path>
<path d="M16 7.84c-0.342-0.051-0.738-0.080-1.14-0.080-4.507 0-8.16 3.653-8.16 8.16s3.653 8.16 8.16 8.16c0.402 0 0.797-0.029 1.184-0.085l-0.044 0.005c3.763-0.776 6.552-4.062 6.552-8s-2.789-7.224-6.499-7.991l-0.053-0.009zM16 21.28c-2.916 0-5.28-2.364-5.28-5.28s2.364-5.28 5.28-5.28v0c2.916 0 5.28 2.364 5.28 5.28s-2.364 5.28-5.28 5.28v0zM26.56 7.52c0 1.060-0.86 1.92-1.92 1.92s-1.92-0.86-1.92-1.92v0c0-1.060 0.86-1.92 1.92-1.92s1.92 0.86 1.92 1.92v0z"></path>
</symbol>
<symbol id="icon-linkedin" viewBox="0 0 32 32">
<path d="M32 32v-11.68c0-5.76-1.28-10.24-8-10.24-3.2 0-5.28 1.76-6.24 3.52v-3.040h-6.56v21.44h6.56v-10.56c0-2.88 0.48-5.44 4-5.44 3.36 0 3.52 3.2 3.52 5.6v10.4h6.72zM0.48 10.56h6.72v21.44h-6.72v-21.44zM3.84 0c-2.080 0-3.84 1.6-3.84 3.84 0 2.080 1.6 3.84 3.84 3.84 2.121 0 3.84-1.719 3.84-3.84s-1.719-3.84-3.84-3.84v0z"></path>
</symbol>
<symbol id="icon-Logo" viewBox="0 0 57 32">
<path  d="M26.72 3.2h-0.587c-0.103-0.003-0.225-0.005-0.347-0.005s-0.243 0.002-0.364 0.005l0.018-0c-1.973 0-3.893 0.533-5.653 1.333l-0.267 0.107v11.893l0.533-0.213c1.743-0.592 3.752-0.959 5.84-1.013l0.027-0.001v1.6h-0.587c-2.696 0.137-5.192 0.871-7.397 2.072l0.091-0.045v-15.147c2.29-1.369 5.049-2.181 7.998-2.187h0.268c1.008 0.045 1.959 0.179 2.879 0.394l-0.105-0.021v1.493c-0.64-0.16-1.28-0.213-1.92-0.267h-0.48zM29.387 4.747h1.067c2.956-0.008 5.73-0.778 8.138-2.124l-0.085 0.044v14.933c-2.273 1.328-5.003 2.113-7.918 2.113-1.086 0-2.146-0.109-3.171-0.316l0.102 0.017v-14.933c0.556 0.129 1.214 0.224 1.886 0.265l0.034 0.002zM36.96 4.853l-0.533 0.16-1.493 0.48c-1.346 0.355-2.892 0.558-4.485 0.558-0.336 0-0.67-0.009-1.001-0.027l0.046 0.002h-0.427v12.107h0.32l1.067 0.107c2.313-0.004 4.496-0.556 6.429-1.531l-0.082 0.038 0.213-0.107v-11.787z"></path>
<path  d="M19.040 24.107c-0.14-0.13-0.327-0.21-0.533-0.213h-0.374c-0.314 0.113-0.535 0.408-0.535 0.755 0 0.016 0 0.032 0.001 0.047l-0-0.002v2.027c0 0.16 0 0.32 0.107 0.427 0 0.107 0.107 0.213 0.16 0.267l0.32 0.16h0.587c0.315-0.13 0.533-0.435 0.533-0.791 0-0.003-0-0.006-0-0.009v0-0.213h-0.533v0.32l-0.213 0.213h-0.107c-0.015 0.003-0.032 0.005-0.050 0.005-0.089 0-0.168-0.044-0.216-0.111l-0.001-0.001-0.053-0.32v-1.92l0.053-0.267c0.042-0.095 0.136-0.161 0.245-0.161 0.008 0 0.015 0 0.023 0.001l-0.001-0c0.096 0.012 0.176 0.074 0.213 0.158l0.001 0.002c0.107 0.053 0.107 0.16 0.107 0.267v0.16h0.533v-0.213c-0.006-0.249-0.107-0.474-0.267-0.64l0 0zM22.187 24.107c-0.163-0.131-0.372-0.21-0.6-0.21-0.11 0-0.215 0.018-0.314 0.052l0.007-0.002c-0.107 0-0.213 0.053-0.267 0.16l-0.213 0.267-0.053 0.373v1.973l0.053 0.373c0 0.107 0.107 0.213 0.213 0.267 0.053 0.107 0.16 0.16 0.267 0.16 0.095 0.037 0.205 0.058 0.32 0.058s0.225-0.021 0.326-0.060l-0.006 0.002c0.107 0 0.213-0.053 0.267-0.16 0.165-0.156 0.267-0.376 0.267-0.62 0-0.007-0-0.014-0-0.021l0 0.001v-1.973l-0.053-0.373c0-0.107-0.107-0.213-0.213-0.267zM21.973 26.72c0 0.002 0 0.003 0 0.005 0 0.102-0.041 0.194-0.107 0.261l0-0c-0.068 0.069-0.162 0.112-0.267 0.112s-0.199-0.043-0.267-0.112l-0-0c-0.066-0.067-0.107-0.16-0.107-0.261 0-0.002 0-0.004 0-0.006v0-1.973c-0-0.002-0-0.003-0-0.005 0-0.102 0.041-0.194 0.107-0.261l-0 0c0.068-0.069 0.162-0.112 0.267-0.112s0.199 0.043 0.267 0.112l0 0c0.066 0.067 0.107 0.16 0.107 0.261 0 0.002 0 0.004-0 0.006v-0 1.973zM26.347 27.573v-3.68h-0.533l-0.64 1.973-0.693-1.973h-0.533v3.68h0.533v-2.24l0.533 1.6h0.267l0.533-1.6v2.24h0.533zM29.333 24.16l-0.32-0.213h-1.173v3.627h0.533v-1.44h0.267c0.16 0 0.32 0 0.48-0.107l0.267-0.267 0.16-0.32c0.028-0.144 0.044-0.31 0.044-0.48s-0.016-0.336-0.047-0.496l0.003 0.016-0.213-0.32zM29.067 25.227l-0.053 0.267-0.16 0.107c-0.040 0.011-0.086 0.017-0.133 0.017s-0.093-0.006-0.137-0.018l0.004 0.001h-0.213v-1.227h0.267l0.213 0.053 0.16 0.16v0.693zM31.787 23.893h-0.427l-0.8 3.68h0.533l0.16-0.8h0.693l0.16 0.8h0.533l-0.853-3.68zM31.307 26.293l0.267-1.333 0.267 1.333h-0.533zM35.2 26.133l-0.853-2.24h-0.48v3.68h0.533v-2.187l0.8 2.187h0.533v-3.68h-0.533v2.24zM38.4 23.893l-0.427 1.44-0.48-1.44h-0.533l0.747 2.133v1.547h0.533v-1.6l0.693-2.080h-0.533zM17.6 28.587h0.267v0.747h0.16v-0.747h0.267v-0.107h-0.693v0.107zM19.733 28.48l-0.32 0.853h0.16l0.053-0.213h0.373l0.053 0.213h0.213l-0.373-0.853h-0.16zM19.733 29.013l0.053-0.373 0.16 0.32h-0.267zM21.867 29.013h0.16v0.107l-0.213 0.053c-0.005 0-0.012 0.001-0.018 0.001-0.055 0-0.104-0.021-0.142-0.054l0 0-0.107-0.213c0-0.213 0.107-0.32 0.267-0.32 0.016-0.006 0.034-0.009 0.054-0.009 0.088 0 0.16 0.072 0.16 0.16 0 0.003-0 0.006-0 0.010l0-0h0.16c0-0.213-0.16-0.32-0.373-0.32l-0.32 0.107c-0.071 0.076-0.115 0.178-0.115 0.291 0 0.029 0.003 0.058 0.008 0.085l-0-0.003c0 0.107 0 0.213 0.107 0.32 0.075 0.067 0.175 0.108 0.284 0.108 0.013 0 0.025-0.001 0.038-0.002l-0.002 0c0.16 0 0.267 0 0.373-0.16v-0.32h-0.373v0.16zM24 28.48h-0.213v0.853h0.587v-0.16h-0.373v-0.693zM25.76 28.48h-0.16v0.853h0.16v-0.853zM27.52 29.013l-0.32-0.533h-0.16v0.853h0.16v-0.533l0.32 0.533h0.16v-0.853h-0.16v0.533zM29.12 28.96h0.427v-0.16h-0.427v-0.213h0.48v-0.107h-0.64v0.853h0.64v-0.16h-0.48v-0.213zM33.067 28.8h-0.373v-0.32h-0.16v0.853h0.16v-0.373h0.32v0.373h0.16v-0.853h-0.107v0.32zM34.667 28.96h0.373v-0.16h-0.373v-0.213h0.48v-0.107h-0.64v0.853h0.64v-0.16h-0.48v-0.213zM36.8 28.96c0.16 0 0.213-0.107 0.213-0.267 0.001-0.005 0.001-0.012 0.001-0.018 0-0.055-0.021-0.104-0.054-0.142l0 0c-0.065-0.035-0.142-0.055-0.224-0.055-0.015 0-0.030 0.001-0.045 0.002l0.002-0h-0.373v0.853h0.213v-0.373h0.107l0.053 0.107 0.213 0.267h0.213l-0.107-0.16-0.213-0.213zM36.64 28.8h-0.107v-0.213h0.267c0.059 0 0.107 0.048 0.107 0.107s-0.048 0.107-0.107 0.107v0c-0.024 0.004-0.052 0.006-0.080 0.006s-0.056-0.002-0.083-0.006l0.003 0zM38.453 28.96h0.427v-0.16h-0.427v-0.213h0.48v-0.107h-0.64v0.853h0.64v-0.16h-0.48v-0.213z"></path>
</symbol>
<symbol id="icon-mail" viewBox="0 0 43 32">
<path d="M38.667 0h-34.667c-2.133 0-4 1.867-4 4v24c0 2.133 1.867 4 4 4h34.667c2.133 0 4-1.867 4-4v-24c0-2.133-1.867-4-4-4zM38.667 2.667h0.533l-17.867 15.467-17.867-15.467h35.2zM38.667 29.333h-34.667c-0.736 0-1.333-0.597-1.333-1.333v0-22.4l17.867 15.467c0.22 0.166 0.498 0.267 0.8 0.267s0.58-0.1 0.803-0.269l-0.003 0.002 17.867-15.733v22.4c0 0.8-0.533 1.333-1.333 1.333z"></path>
</symbol>
<symbol id="icon-Object" viewBox="0 0 67 32">
<path  d="M33.724 15.224c-0.315-0.419-0.466-0.915-0.43-1.414v-2.050c0-0.628 0.142-1.106 0.428-1.433s0.775-0.489 1.469-0.488c0.652 0 1.115 0.139 1.389 0.417 0.299 0.355 0.444 0.789 0.411 1.226v0.482h-1.167v-0.488c0.004-0.16-0.007-0.319-0.034-0.478-0.017-0.108-0.076-0.208-0.167-0.284-0.12-0.081-0.271-0.121-0.423-0.111-0.16-0.010-0.318 0.031-0.444 0.117-0.102 0.084-0.169 0.193-0.193 0.313-0.033 0.167-0.049 0.337-0.046 0.507v2.488c-0.018 0.24 0.033 0.48 0.15 0.699 0.058 0.074 0.139 0.132 0.233 0.169s0.198 0.050 0.301 0.039c0.149 0.011 0.298-0.030 0.413-0.113 0.095-0.082 0.156-0.188 0.174-0.302 0.027-0.165 0.039-0.332 0.036-0.498v-0.505h1.167v0.461c0.033 0.456-0.109 0.909-0.403 1.289-0.268 0.305-0.725 0.457-1.396 0.457s-1.179-0.163-1.466-0.501z"></path>
<path  d="M38.583 15.245c-0.295-0.319-0.442-0.784-0.442-1.4v-2.157c0-0.609 0.147-1.070 0.442-1.383s0.788-0.469 1.478-0.467c0.686 0 1.177 0.156 1.471 0.467 0.295 0.313 0.444 0.774 0.444 1.383v2.157c0 0.609-0.15 1.076-0.449 1.397s-0.788 0.482-1.466 0.482c-0.679 0-1.181-0.163-1.478-0.48zM40.605 14.727c0.106-0.2 0.154-0.419 0.14-0.638v-2.641c0.014-0.215-0.034-0.43-0.138-0.626-0.059-0.075-0.142-0.135-0.238-0.172s-0.203-0.050-0.308-0.037c-0.105-0.013-0.212 0-0.308 0.037s-0.18 0.096-0.24 0.172c-0.106 0.195-0.154 0.41-0.14 0.626v2.653c-0.015 0.219 0.033 0.439 0.14 0.638 0.068 0.067 0.152 0.121 0.246 0.158s0.196 0.056 0.3 0.056c0.103 0 0.206-0.019 0.3-0.056s0.178-0.091 0.246-0.158v-0.012z"></path>
<path  d="M43.38 9.901h1.256l0.945 3.979 0.966-3.979h1.222l0.123 5.743h-0.904l-0.097-3.992-0.932 3.992h-0.725l-0.966-4.006-0.089 4.006h-0.913l0.114-5.743z"></path>
<path  d="M49.301 9.901h1.957c1.127 0 1.691 0.544 1.691 1.631 0 1.041-0.593 1.561-1.78 1.56h-0.667v2.553h-1.208l0.007-5.743zM50.973 12.356c0.119 0.013 0.24 0.004 0.355-0.028s0.22-0.084 0.309-0.154c0.139-0.194 0.2-0.422 0.174-0.649 0.006-0.175-0.013-0.35-0.058-0.521-0.017-0.057-0.047-0.111-0.089-0.158s-0.093-0.086-0.153-0.116c-0.168-0.069-0.353-0.101-0.539-0.092h-0.469v1.716h0.469z"></path>
<path  d="M54.691 9.901h1.297l1.331 5.743h-1.126l-0.263-1.324h-1.157l-0.271 1.324h-1.143l1.331-5.743zM55.8 13.655l-0.452-2.411-0.452 2.411h0.903z"></path>
<path  d="M58.395 9.901h0.846l1.619 3.276v-3.276h1.003v5.743h-0.804l-1.628-3.42v3.42h-1.036l0.002-5.743z"></path>
<path  d="M64.209 13.455l-1.346-3.546h1.133l0.821 2.277 0.771-2.277h1.109l-1.329 3.546v2.19h-1.16v-2.19z"></path>
<path  d="M35.589 18.156v0.3h-0.986v2.334h-0.413v-2.334h-0.99v-0.3h2.389z"></path>
<path  d="M38.679 20.79h-0.319c-0.032 0.002-0.064-0.007-0.089-0.025-0.024-0.015-0.043-0.036-0.053-0.060l-0.285-0.626h-1.367l-0.285 0.626c-0.008 0.026-0.023 0.050-0.044 0.071-0.025 0.017-0.057 0.026-0.089 0.025h-0.319l1.208-2.634h0.42l1.222 2.624zM36.679 19.812h1.14l-0.483-1.072c-0.036-0.081-0.066-0.164-0.089-0.248-0.017 0.050-0.031 0.098-0.046 0.14l-0.044 0.11-0.478 1.070z"></path>
<path  d="M40.762 20.532c0.076 0.003 0.151 0.003 0.227 0 0.065-0.006 0.13-0.016 0.193-0.031 0.059-0.013 0.117-0.029 0.174-0.048 0.053-0.019 0.106-0.042 0.162-0.065v-0.592h-0.483c-0.012 0.001-0.024-0.001-0.035-0.005s-0.021-0.009-0.030-0.016c-0.008-0.006-0.014-0.013-0.018-0.022s-0.006-0.017-0.006-0.026v-0.202h0.937v1.010c-0.077 0.047-0.157 0.089-0.242 0.125-0.086 0.037-0.176 0.067-0.268 0.090-0.099 0.025-0.2 0.043-0.302 0.054-0.117 0.011-0.235 0.017-0.353 0.017-0.208 0.002-0.415-0.032-0.609-0.098-0.181-0.063-0.345-0.156-0.483-0.275-0.134-0.12-0.24-0.262-0.312-0.417-0.076-0.175-0.114-0.36-0.111-0.547-0.003-0.188 0.034-0.374 0.109-0.551 0.069-0.156 0.176-0.298 0.312-0.417 0.138-0.119 0.302-0.212 0.483-0.273 0.207-0.067 0.426-0.1 0.647-0.098 0.112-0 0.225 0.008 0.336 0.023 0.098 0.014 0.195 0.036 0.288 0.067 0.084 0.027 0.165 0.062 0.242 0.104 0.074 0.041 0.144 0.087 0.21 0.138l-0.116 0.163c-0.009 0.015-0.023 0.027-0.039 0.036s-0.036 0.014-0.055 0.014c-0.027-0.001-0.053-0.008-0.075-0.021-0.036-0.017-0.075-0.038-0.118-0.063-0.051-0.028-0.106-0.052-0.162-0.071-0.072-0.025-0.146-0.044-0.222-0.058-0.101-0.016-0.204-0.024-0.307-0.023-0.159-0.002-0.318 0.023-0.466 0.073-0.134 0.047-0.256 0.118-0.355 0.209-0.1 0.095-0.177 0.206-0.225 0.328-0.108 0.285-0.108 0.593 0 0.878 0.053 0.124 0.135 0.237 0.242 0.332 0.099 0.090 0.219 0.162 0.353 0.209 0.154 0.046 0.316 0.063 0.478 0.052z"></path>
<path  d="M44.612 20.49h1.319v0.3h-1.722v-2.634h0.413l-0.010 2.334z"></path>
<path  d="M47.304 20.79h-0.413v-2.634h0.413v2.634z"></path>
<path  d="M48.84 18.168c0.025 0.012 0.046 0.028 0.063 0.048l1.766 1.986c-0.002-0.031-0.002-0.063 0-0.094 0-0.029 0-0.058 0-0.085v-1.877h0.36v2.645h-0.208c-0.031 0.002-0.062-0.003-0.089-0.015-0.025-0.013-0.047-0.030-0.065-0.050l-1.764-1.984c0 0.031 0 0.061 0 0.090s0 0.056 0 0.081v1.877h-0.345v-2.634h0.215c0.023 0 0.046 0.004 0.068 0.012z"></path>
<path  d="M54.070 18.156v0.29h-1.464v0.87h1.186v0.279h-1.186v0.899h1.464v0.29h-1.889v-2.628h1.889z"></path>
<path  d="M10.782 1.888l18.343 4.497v15.757l-18.343-4.494v-15.759zM9.605 0.545v17.867l20.694 5.074v-17.865l-20.694-5.076z"></path>
<path  d="M20.696 31.781l-20.696-5.079v-17.866l20.696 5.076v17.868z"></path>
<path  d="M9.948 1.686l18.104 4.44-7.699 6.649-18.106-4.442 7.702-6.647zM9.605 0.545l-9.605 8.292 20.696 5.076 9.603-8.292-20.694-5.076z"></path>
<path  d="M21.861 30.776l8.438-7.287-8.438-2.071v9.358z"></path>
</symbol>
<symbol id="icon-smartphone" viewBox="0 0 20 32">
<path d="M17 0h-14c-1.6 0-3 1.4-3 3v26c0 1.6 1.4 3 3 3h14c1.6 0 3-1.4 3-3v-26c0-1.6-1.4-3-3-3zM3 2h14c0.6 0 1 0.4 1 1v21h-16v-21c0-0.6 0.4-1 1-1zM17 30h-14c-0.552 0-1-0.448-1-1v0-3h16v3c0 0.6-0.4 1-1 1z"></path>
<path d="M4.8 27.4v1.4c-0.4 0.4-1.2 0.4-1.6 0-0.248-0.139-0.413-0.4-0.413-0.7s0.165-0.561 0.409-0.698l0.004-0.002c0.4-0.2 1.2-0.2 1.6 0z"></path>
</symbol>
<symbol id="icon-twitter" viewBox="0 0 32 32">
<path  d="M32 6.080c-1.12 0.48-2.4 0.8-3.84 0.96 1.347-0.785 2.365-2.010 2.867-3.475l0.013-0.045c-1.28 0.8-2.56 1.28-4.16 1.6-1.201-1.288-2.908-2.091-4.803-2.091-3.623 0-6.56 2.937-6.56 6.56 0 0.515 0.059 1.015 0.171 1.496l-0.009-0.044c-5.44-0.32-10.24-2.88-13.44-6.88-0.562 0.947-0.894 2.088-0.894 3.307 0 2.289 1.173 4.305 2.95 5.478l0.025 0.015c-1.117-0.011-2.163-0.306-3.072-0.817l0.032 0.017c0 3.2 2.24 5.92 5.28 6.4-0.553 0.173-1.188 0.272-1.847 0.272-0.422 0-0.835-0.041-1.234-0.119l0.040 0.007c0.96 2.72 3.2 4.64 6.24 4.64-2.212 1.759-5.047 2.822-8.129 2.822-0.575 0-1.141-0.037-1.697-0.109l0.066 0.007c2.88 1.92 6.4 2.72 10.080 2.72 0.003 0 0.007 0 0.011 0 10.25 0 18.56-8.31 18.56-18.56 0-0.225-0.004-0.449-0.012-0.672l0.001 0.032c1.44-0.96 2.4-2.080 3.36-3.36z"></path>
</symbol>
<symbol id="icon-Union" viewBox="0 0 28 32">
<path  d="M4.085 0l4.766 4.494h-8.851v21.923h23.149v-8.374l4.766 4.494v-22.536h-23.83zM22.945 17.498l-13.549-12.732h13.549v12.8zM18.723 23.217h-15.047v-14.706h1.021v13.685h14.026v1.021zM7.217 29.345l-0.545 1.157-0.545-1.226h-0.477l0.817 1.498v0.953h0.409v-0.953l0.817-1.498h-0.477zM7.898 31.796l0.204-0.613h0.953l0.204 0.613h0.409l-0.817-2.519h-0.409l-0.953 2.519h0.409zM8.579 29.889l0.34 0.953h-0.681l0.34-0.953zM10.826 30.774l-0.136 0.34c0 0.204 0.068 0.34 0.272 0.477 0.136 0.136 0.272 0.204 0.545 0.204 0.204 0 0.409 0 0.613-0.204l0.136 0.204h0.477l-0.34-0.477c0.136-0.136 0.204-0.409 0.204-0.681h-0.34c0 0.136 0 0.272-0.136 0.409l-0.477-0.545 0.204-0.136 0.204-0.204c0.056-0.084 0.089-0.187 0.089-0.298 0-0.149-0.060-0.284-0.157-0.383l0 0c-0.104-0.085-0.239-0.137-0.386-0.137-0.008 0-0.016 0-0.024 0l0.001-0c-0.019-0.002-0.042-0.003-0.064-0.003-0.156 0-0.299 0.052-0.414 0.14l0.002-0.001c-0.136 0.136-0.204 0.272-0.204 0.477l0.068 0.204 0.204 0.34c-0.131 0.075-0.244 0.166-0.339 0.271l-0.001 0.001zM11.915 31.319c-0.112 0.085-0.254 0.136-0.409 0.136v0l-0.272-0.068c-0.083-0.063-0.136-0.161-0.136-0.272v0c0-0.136 0.068-0.272 0.204-0.34h0.068l0.545 0.545zM11.438 30.298l-0.136-0.409v-0.204h0.477l0.068 0.204-0.068 0.204-0.272 0.204zM15.387 31.591c0.204-0.136 0.272-0.34 0.272-0.613h-0.409c0 0.204 0 0.272-0.136 0.34-0.068 0.136-0.204 0.136-0.409 0.136-0.005 0-0.011 0-0.017 0-0.161 0-0.304-0.080-0.39-0.203l-0.001-0.002-0.136-0.613v-0.204c0-0.272 0.068-0.477 0.204-0.613 0.068-0.136 0.204-0.136 0.409-0.136l0.34 0.068 0.136 0.409h0.409c0-0.272-0.068-0.477-0.272-0.681l-0.681-0.136c-0.136 0-0.34 0-0.477 0.136l-0.34 0.34c-0.087 0.175-0.139 0.381-0.139 0.599 0 0.029 0.001 0.058 0.003 0.086l-0-0.004v0.204c0 0.204 0 0.409 0.136 0.545 0.068 0.204 0.204 0.34 0.34 0.409l0.477 0.136c0.34 0 0.545-0.068 0.681-0.204zM17.906 31.251l0.068-0.681v-0.068c0-0.272 0-0.477-0.136-0.681-0.166-0.285-0.469-0.473-0.817-0.477h-0c-0.204 0-0.409 0-0.545 0.136-0.136 0.068-0.272 0.204-0.34 0.409-0.136 0.136-0.136 0.34-0.136 0.613v0.136c0 0.204 0 0.409 0.136 0.613 0 0.204 0.204 0.34 0.34 0.409l0.545 0.136c0.204 0 0.34 0 0.477-0.136 0.204-0.068 0.272-0.272 0.409-0.409zM17.43 29.889l0.136 0.613v0.136c0 0.272 0 0.477-0.136 0.613l-0.409 0.204c-0.024 0.004-0.052 0.007-0.081 0.007-0.164 0-0.309-0.083-0.395-0.209l-0.001-0.002-0.136-0.681v-0.068c0-0.272 0-0.477 0.136-0.681l0.477-0.136c0.136 0 0.272 0 0.409 0.204z"></path>
</symbol>
</defs>
</svg>
